<?xml version="1.0" encoding="UTF-8"?>
<svg xmlns="http://www.w3.org/2000/svg" xmlns:xlink="http://www.w3.org/1999/xlink" width="1000pt" height="600pt" viewBox="0 0 1000 600" version="1.1">
<defs>
<clipPath id="clip1">
  <path d="M 96.90625 132.546875 L 180.558594 132.546875 L 180.558594 216.199219 L 96.90625 216.199219 Z M 96.90625 132.546875 "/>
</clipPath>
<filter id="alpha" filterUnits="objectBoundingBox" x="0%" y="0%" width="100%" height="100%">
  <feColorMatrix type="matrix" in="SourceGraphic" values="0 0 0 0 1 0 0 0 0 1 0 0 0 0 1 0 0 0 1 0"/>
</filter>
<mask id="mask0">
  <g filter="url(#alpha)">
<rect x="0" y="0" width="1000" height="600" style="fill:rgb(0%,0%,0%);fill-opacity:0.199997;stroke:none;"/>
  </g>
</mask>
<clipPath id="clip3">
  <path d="M 0.90625 0.550781 L 84.558594 0.550781 L 84.558594 84.199219 L 0.90625 84.199219 Z M 0.90625 0.550781 "/>
</clipPath>
<clipPath id="clip2">
  <rect width="85" height="85"/>
</clipPath>
<g id="surface7" clip-path="url(#clip2)">
<g clip-path="url(#clip3)" clip-rule="nonzero">
<path style=" stroke:none;fill-rule:nonzero;fill:rgb(52.146912%,76.171875%,92.1875%);fill-opacity:1;" d="M 0.90625 84.199219 L 84.558594 84.199219 L 84.558594 0.546875 L 0.90625 0.546875 Z M 0.90625 84.199219 "/>
</g>
</g>
<clipPath id="clip4">
  <path d="M 807.941406 132.546875 L 891.589844 132.546875 L 891.589844 216.199219 L 807.941406 216.199219 Z M 807.941406 132.546875 "/>
</clipPath>
<mask id="mask1">
  <g filter="url(#alpha)">
<rect x="0" y="0" width="1000" height="600" style="fill:rgb(0%,0%,0%);fill-opacity:0.199997;stroke:none;"/>
  </g>
</mask>
<clipPath id="clip6">
  <path d="M 0.941406 0.550781 L 84.589844 0.550781 L 84.589844 84.199219 L 0.941406 84.199219 Z M 0.941406 0.550781 "/>
</clipPath>
<clipPath id="clip5">
  <rect width="85" height="85"/>
</clipPath>
<g id="surface10" clip-path="url(#clip5)">
<g clip-path="url(#clip6)" clip-rule="nonzero">
<path style=" stroke:none;fill-rule:nonzero;fill:rgb(52.146912%,76.171875%,92.1875%);fill-opacity:1;" d="M 0.9375 84.199219 L 84.589844 84.199219 L 84.589844 0.546875 L 0.9375 0.546875 Z M 0.9375 84.199219 "/>
</g>
</g>
<clipPath id="clip7">
  <path d="M 96.90625 383.601563 L 180.558594 383.601563 L 180.558594 467.253906 L 96.90625 467.253906 Z M 96.90625 383.601563 "/>
</clipPath>
<mask id="mask2">
  <g filter="url(#alpha)">
<rect x="0" y="0" width="1000" height="600" style="fill:rgb(0%,0%,0%);fill-opacity:0.199997;stroke:none;"/>
  </g>
</mask>
<clipPath id="clip9">
  <path d="M 0.90625 0.601563 L 84.558594 0.601563 L 84.558594 84.253906 L 0.90625 84.253906 Z M 0.90625 0.601563 "/>
</clipPath>
<clipPath id="clip8">
  <rect width="85" height="85"/>
</clipPath>
<g id="surface13" clip-path="url(#clip8)">
<g clip-path="url(#clip9)" clip-rule="nonzero">
<path style=" stroke:none;fill-rule:nonzero;fill:rgb(52.146912%,76.171875%,92.1875%);fill-opacity:1;" d="M 0.90625 84.253906 L 84.558594 84.253906 L 84.558594 0.601563 L 0.90625 0.601563 Z M 0.90625 84.253906 "/>
</g>
</g>
<clipPath id="clip10">
  <path d="M 807.941406 383.601563 L 891.589844 383.601563 L 891.589844 467.253906 L 807.941406 467.253906 Z M 807.941406 383.601563 "/>
</clipPath>
<mask id="mask3">
  <g filter="url(#alpha)">
<rect x="0" y="0" width="1000" height="600" style="fill:rgb(0%,0%,0%);fill-opacity:0.199997;stroke:none;"/>
  </g>
</mask>
<clipPath id="clip12">
  <path d="M 0.941406 0.601563 L 84.589844 0.601563 L 84.589844 84.253906 L 0.941406 84.253906 Z M 0.941406 0.601563 "/>
</clipPath>
<clipPath id="clip11">
  <rect width="85" height="85"/>
</clipPath>
<g id="surface12" clip-path="url(#clip11)">
<g clip-path="url(#clip12)" clip-rule="nonzero">
<path style=" stroke:none;fill-rule:nonzero;fill:rgb(52.146912%,76.171875%,92.1875%);fill-opacity:1;" d="M 0.9375 84.253906 L 84.589844 84.253906 L 84.589844 0.601563 L 0.9375 0.601563 Z M 0.9375 84.253906 "/>
</g>
</g>
</defs>
<g id="surface1">
<path style="fill:none;stroke-width:8;stroke-linecap:round;stroke-linejoin:round;stroke:rgb(52.146912%,76.171875%,92.1875%);stroke-opacity:1;stroke-miterlimit:10;" d="M 1805.585938 3417.773438 L 2223.828125 3417.773438 L 2223.828125 3836.015625 L 1805.585938 3836.015625 Z M 1805.585938 3417.773438 " transform="matrix(0.1,0,0,-0.1,0,600)"/>
<path style="fill:none;stroke-width:8;stroke-linecap:round;stroke-linejoin:round;stroke:rgb(52.146912%,76.171875%,92.1875%);stroke-opacity:1;stroke-miterlimit:10;" d="M 1805.585938 2999.492188 L 2223.828125 2999.492188 L 2223.828125 3417.773438 L 1805.585938 3417.773438 Z M 1805.585938 2999.492188 " transform="matrix(0.1,0,0,-0.1,0,600)"/>
<path style="fill:none;stroke-width:8;stroke-linecap:round;stroke-linejoin:round;stroke:rgb(52.146912%,76.171875%,92.1875%);stroke-opacity:1;stroke-miterlimit:10;" d="M 1805.585938 2581.25 L 2223.828125 2581.25 L 2223.828125 2999.492188 L 1805.585938 2999.492188 Z M 1805.585938 2581.25 " transform="matrix(0.1,0,0,-0.1,0,600)"/>
<path style="fill:none;stroke-width:8;stroke-linecap:round;stroke-linejoin:round;stroke:rgb(52.146912%,76.171875%,92.1875%);stroke-opacity:1;stroke-miterlimit:10;" d="M 1805.585938 2163.007813 L 2223.828125 2163.007813 L 2223.828125 2581.25 L 1805.585938 2581.25 Z M 1805.585938 2163.007813 " transform="matrix(0.1,0,0,-0.1,0,600)"/>
<path style="fill:none;stroke-width:8;stroke-linecap:round;stroke-linejoin:round;stroke:rgb(52.146912%,76.171875%,92.1875%);stroke-opacity:1;stroke-miterlimit:10;" d="M 1805.585938 1744.726563 L 2223.828125 1744.726563 L 2223.828125 2163.007813 L 1805.585938 2163.007813 Z M 1805.585938 1744.726563 " transform="matrix(0.1,0,0,-0.1,0,600)"/>
<path style="fill:none;stroke-width:8;stroke-linecap:round;stroke-linejoin:round;stroke:rgb(52.146912%,76.171875%,92.1875%);stroke-opacity:1;stroke-miterlimit:10;" d="M 2223.828125 3417.773438 L 2642.070313 3417.773438 L 2642.070313 3836.015625 L 2223.828125 3836.015625 Z M 2223.828125 3417.773438 " transform="matrix(0.1,0,0,-0.1,0,600)"/>
<path style="fill:none;stroke-width:8;stroke-linecap:round;stroke-linejoin:round;stroke:rgb(52.146912%,76.171875%,92.1875%);stroke-opacity:1;stroke-miterlimit:10;" d="M 2223.828125 2999.492188 L 2642.070313 2999.492188 L 2642.070313 3417.773438 L 2223.828125 3417.773438 Z M 2223.828125 2999.492188 " transform="matrix(0.1,0,0,-0.1,0,600)"/>
<path style="fill:none;stroke-width:8;stroke-linecap:round;stroke-linejoin:round;stroke:rgb(52.146912%,76.171875%,92.1875%);stroke-opacity:1;stroke-miterlimit:10;" d="M 2223.828125 2581.25 L 2642.070313 2581.25 L 2642.070313 2999.492188 L 2223.828125 2999.492188 Z M 2223.828125 2581.25 " transform="matrix(0.1,0,0,-0.1,0,600)"/>
<path style="fill:none;stroke-width:8;stroke-linecap:round;stroke-linejoin:round;stroke:rgb(52.146912%,76.171875%,92.1875%);stroke-opacity:1;stroke-miterlimit:10;" d="M 2223.828125 2163.007813 L 2642.070313 2163.007813 L 2642.070313 2581.25 L 2223.828125 2581.25 Z M 2223.828125 2163.007813 " transform="matrix(0.1,0,0,-0.1,0,600)"/>
<path style="fill:none;stroke-width:8;stroke-linecap:round;stroke-linejoin:round;stroke:rgb(52.146912%,76.171875%,92.1875%);stroke-opacity:1;stroke-miterlimit:10;" d="M 2223.828125 1744.726563 L 2642.070313 1744.726563 L 2642.070313 2163.007813 L 2223.828125 2163.007813 Z M 2223.828125 1744.726563 " transform="matrix(0.1,0,0,-0.1,0,600)"/>
<path style="fill:none;stroke-width:8;stroke-linecap:round;stroke-linejoin:round;stroke:rgb(52.146912%,76.171875%,92.1875%);stroke-opacity:1;stroke-miterlimit:10;" d="M 2642.070313 3417.773438 L 3060.351563 3417.773438 L 3060.351563 3836.015625 L 2642.070313 3836.015625 Z M 2642.070313 3417.773438 " transform="matrix(0.1,0,0,-0.1,0,600)"/>
<path style="fill:none;stroke-width:8;stroke-linecap:round;stroke-linejoin:round;stroke:rgb(52.146912%,76.171875%,92.1875%);stroke-opacity:1;stroke-miterlimit:10;" d="M 2642.070313 2999.492188 L 3060.351563 2999.492188 L 3060.351563 3417.773438 L 2642.070313 3417.773438 Z M 2642.070313 2999.492188 " transform="matrix(0.1,0,0,-0.1,0,600)"/>
<path style="fill:none;stroke-width:8;stroke-linecap:round;stroke-linejoin:round;stroke:rgb(52.146912%,76.171875%,92.1875%);stroke-opacity:1;stroke-miterlimit:10;" d="M 2642.070313 2581.25 L 3060.351563 2581.25 L 3060.351563 2999.492188 L 2642.070313 2999.492188 Z M 2642.070313 2581.25 " transform="matrix(0.1,0,0,-0.1,0,600)"/>
<path style="fill:none;stroke-width:8;stroke-linecap:round;stroke-linejoin:round;stroke:rgb(52.146912%,76.171875%,92.1875%);stroke-opacity:1;stroke-miterlimit:10;" d="M 2642.070313 2163.007813 L 3060.351563 2163.007813 L 3060.351563 2581.25 L 2642.070313 2581.25 Z M 2642.070313 2163.007813 " transform="matrix(0.1,0,0,-0.1,0,600)"/>
<path style="fill:none;stroke-width:8;stroke-linecap:round;stroke-linejoin:round;stroke:rgb(52.146912%,76.171875%,92.1875%);stroke-opacity:1;stroke-miterlimit:10;" d="M 2642.070313 1744.726563 L 3060.351563 1744.726563 L 3060.351563 2163.007813 L 2642.070313 2163.007813 Z M 2642.070313 1744.726563 " transform="matrix(0.1,0,0,-0.1,0,600)"/>
<path style="fill:none;stroke-width:8;stroke-linecap:round;stroke-linejoin:round;stroke:rgb(52.146912%,76.171875%,92.1875%);stroke-opacity:1;stroke-miterlimit:10;" d="M 3060.351563 3417.773438 L 3478.59375 3417.773438 L 3478.59375 3836.015625 L 3060.351563 3836.015625 Z M 3060.351563 3417.773438 " transform="matrix(0.1,0,0,-0.1,0,600)"/>
<path style="fill:none;stroke-width:8;stroke-linecap:round;stroke-linejoin:round;stroke:rgb(52.146912%,76.171875%,92.1875%);stroke-opacity:1;stroke-miterlimit:10;" d="M 3060.351563 2999.492188 L 3478.59375 2999.492188 L 3478.59375 3417.773438 L 3060.351563 3417.773438 Z M 3060.351563 2999.492188 " transform="matrix(0.1,0,0,-0.1,0,600)"/>
<path style="fill:none;stroke-width:8;stroke-linecap:round;stroke-linejoin:round;stroke:rgb(52.146912%,76.171875%,92.1875%);stroke-opacity:1;stroke-miterlimit:10;" d="M 3060.351563 2581.25 L 3478.59375 2581.25 L 3478.59375 2999.492188 L 3060.351563 2999.492188 Z M 3060.351563 2581.25 " transform="matrix(0.1,0,0,-0.1,0,600)"/>
<path style="fill:none;stroke-width:8;stroke-linecap:round;stroke-linejoin:round;stroke:rgb(52.146912%,76.171875%,92.1875%);stroke-opacity:1;stroke-miterlimit:10;" d="M 3060.351563 2163.007813 L 3478.59375 2163.007813 L 3478.59375 2581.25 L 3060.351563 2581.25 Z M 3060.351563 2163.007813 " transform="matrix(0.1,0,0,-0.1,0,600)"/>
<path style="fill:none;stroke-width:8;stroke-linecap:round;stroke-linejoin:round;stroke:rgb(52.146912%,76.171875%,92.1875%);stroke-opacity:1;stroke-miterlimit:10;" d="M 3060.351563 1744.726563 L 3478.59375 1744.726563 L 3478.59375 2163.007813 L 3060.351563 2163.007813 Z M 3060.351563 1744.726563 " transform="matrix(0.1,0,0,-0.1,0,600)"/>
<path style="fill:none;stroke-width:8;stroke-linecap:round;stroke-linejoin:round;stroke:rgb(52.146912%,76.171875%,92.1875%);stroke-opacity:1;stroke-miterlimit:10;" d="M 3478.59375 3417.773438 L 3896.835938 3417.773438 L 3896.835938 3836.015625 L 3478.59375 3836.015625 Z M 3478.59375 3417.773438 " transform="matrix(0.1,0,0,-0.1,0,600)"/>
<path style="fill:none;stroke-width:8;stroke-linecap:round;stroke-linejoin:round;stroke:rgb(52.146912%,76.171875%,92.1875%);stroke-opacity:1;stroke-miterlimit:10;" d="M 3478.59375 2999.492188 L 3896.835938 2999.492188 L 3896.835938 3417.773438 L 3478.59375 3417.773438 Z M 3478.59375 2999.492188 " transform="matrix(0.1,0,0,-0.1,0,600)"/>
<path style="fill:none;stroke-width:8;stroke-linecap:round;stroke-linejoin:round;stroke:rgb(52.146912%,76.171875%,92.1875%);stroke-opacity:1;stroke-miterlimit:10;" d="M 3478.59375 2581.25 L 3896.835938 2581.25 L 3896.835938 2999.492188 L 3478.59375 2999.492188 Z M 3478.59375 2581.25 " transform="matrix(0.1,0,0,-0.1,0,600)"/>
<path style="fill:none;stroke-width:8;stroke-linecap:round;stroke-linejoin:round;stroke:rgb(52.146912%,76.171875%,92.1875%);stroke-opacity:1;stroke-miterlimit:10;" d="M 3478.59375 2163.007813 L 3896.835938 2163.007813 L 3896.835938 2581.25 L 3478.59375 2581.25 Z M 3478.59375 2163.007813 " transform="matrix(0.1,0,0,-0.1,0,600)"/>
<path style="fill:none;stroke-width:8;stroke-linecap:round;stroke-linejoin:round;stroke:rgb(52.146912%,76.171875%,92.1875%);stroke-opacity:1;stroke-miterlimit:10;" d="M 3478.59375 1744.726563 L 3896.835938 1744.726563 L 3896.835938 2163.007813 L 3478.59375 2163.007813 Z M 3478.59375 1744.726563 " transform="matrix(0.1,0,0,-0.1,0,600)"/>
<path style="fill:none;stroke-width:8;stroke-linecap:round;stroke-linejoin:round;stroke:rgb(52.146912%,76.171875%,92.1875%);stroke-opacity:1;stroke-miterlimit:10;" d="M 3896.835938 3417.773438 L 4315.117188 3417.773438 L 4315.117188 3836.015625 L 3896.835938 3836.015625 Z M 3896.835938 3417.773438 " transform="matrix(0.1,0,0,-0.1,0,600)"/>
<path style="fill:none;stroke-width:8;stroke-linecap:round;stroke-linejoin:round;stroke:rgb(52.146912%,76.171875%,92.1875%);stroke-opacity:1;stroke-miterlimit:10;" d="M 3896.835938 2999.492188 L 4315.117188 2999.492188 L 4315.117188 3417.773438 L 3896.835938 3417.773438 Z M 3896.835938 2999.492188 " transform="matrix(0.1,0,0,-0.1,0,600)"/>
<path style="fill:none;stroke-width:8;stroke-linecap:round;stroke-linejoin:round;stroke:rgb(52.146912%,76.171875%,92.1875%);stroke-opacity:1;stroke-miterlimit:10;" d="M 3896.835938 2581.25 L 4315.117188 2581.25 L 4315.117188 2999.492188 L 3896.835938 2999.492188 Z M 3896.835938 2581.25 " transform="matrix(0.1,0,0,-0.1,0,600)"/>
<path style="fill:none;stroke-width:8;stroke-linecap:round;stroke-linejoin:round;stroke:rgb(52.146912%,76.171875%,92.1875%);stroke-opacity:1;stroke-miterlimit:10;" d="M 3896.835938 2163.007813 L 4315.117188 2163.007813 L 4315.117188 2581.25 L 3896.835938 2581.25 Z M 3896.835938 2163.007813 " transform="matrix(0.1,0,0,-0.1,0,600)"/>
<path style="fill:none;stroke-width:8;stroke-linecap:round;stroke-linejoin:round;stroke:rgb(52.146912%,76.171875%,92.1875%);stroke-opacity:1;stroke-miterlimit:10;" d="M 3896.835938 1744.726563 L 4315.117188 1744.726563 L 4315.117188 2163.007813 L 3896.835938 2163.007813 Z M 3896.835938 1744.726563 " transform="matrix(0.1,0,0,-0.1,0,600)"/>
<path style="fill:none;stroke-width:8;stroke-linecap:round;stroke-linejoin:round;stroke:rgb(52.146912%,76.171875%,92.1875%);stroke-opacity:1;stroke-miterlimit:10;" d="M 4315.078125 3417.773438 L 4733.359375 3417.773438 L 4733.359375 3836.015625 L 4315.078125 3836.015625 Z M 4315.078125 3417.773438 " transform="matrix(0.1,0,0,-0.1,0,600)"/>
<path style="fill:none;stroke-width:8;stroke-linecap:round;stroke-linejoin:round;stroke:rgb(52.146912%,76.171875%,92.1875%);stroke-opacity:1;stroke-miterlimit:10;" d="M 4315.078125 2999.492188 L 4733.359375 2999.492188 L 4733.359375 3417.773438 L 4315.078125 3417.773438 Z M 4315.078125 2999.492188 " transform="matrix(0.1,0,0,-0.1,0,600)"/>
<path style="fill:none;stroke-width:8;stroke-linecap:round;stroke-linejoin:round;stroke:rgb(52.146912%,76.171875%,92.1875%);stroke-opacity:1;stroke-miterlimit:10;" d="M 4315.078125 2581.25 L 4733.359375 2581.25 L 4733.359375 2999.492188 L 4315.078125 2999.492188 Z M 4315.078125 2581.25 " transform="matrix(0.1,0,0,-0.1,0,600)"/>
<path style="fill:none;stroke-width:8;stroke-linecap:round;stroke-linejoin:round;stroke:rgb(52.146912%,76.171875%,92.1875%);stroke-opacity:1;stroke-miterlimit:10;" d="M 4315.078125 2163.007813 L 4733.359375 2163.007813 L 4733.359375 2581.25 L 4315.078125 2581.25 Z M 4315.078125 2163.007813 " transform="matrix(0.1,0,0,-0.1,0,600)"/>
<path style="fill:none;stroke-width:8;stroke-linecap:round;stroke-linejoin:round;stroke:rgb(52.146912%,76.171875%,92.1875%);stroke-opacity:1;stroke-miterlimit:10;" d="M 4315.078125 1744.726563 L 4733.359375 1744.726563 L 4733.359375 2163.007813 L 4315.078125 2163.007813 Z M 4315.078125 1744.726563 " transform="matrix(0.1,0,0,-0.1,0,600)"/>
<path style="fill:none;stroke-width:8;stroke-linecap:round;stroke-linejoin:round;stroke:rgb(52.146912%,76.171875%,92.1875%);stroke-opacity:1;stroke-miterlimit:10;" d="M 4733.359375 3417.773438 L 5151.601563 3417.773438 L 5151.601563 3836.015625 L 4733.359375 3836.015625 Z M 4733.359375 3417.773438 " transform="matrix(0.1,0,0,-0.1,0,600)"/>
<path style="fill:none;stroke-width:8;stroke-linecap:round;stroke-linejoin:round;stroke:rgb(52.146912%,76.171875%,92.1875%);stroke-opacity:1;stroke-miterlimit:10;" d="M 4733.359375 2999.492188 L 5151.601563 2999.492188 L 5151.601563 3417.773438 L 4733.359375 3417.773438 Z M 4733.359375 2999.492188 " transform="matrix(0.1,0,0,-0.1,0,600)"/>
<path style="fill:none;stroke-width:8;stroke-linecap:round;stroke-linejoin:round;stroke:rgb(52.146912%,76.171875%,92.1875%);stroke-opacity:1;stroke-miterlimit:10;" d="M 4733.359375 2581.25 L 5151.601563 2581.25 L 5151.601563 2999.492188 L 4733.359375 2999.492188 Z M 4733.359375 2581.25 " transform="matrix(0.1,0,0,-0.1,0,600)"/>
<path style="fill:none;stroke-width:8;stroke-linecap:round;stroke-linejoin:round;stroke:rgb(52.146912%,76.171875%,92.1875%);stroke-opacity:1;stroke-miterlimit:10;" d="M 4733.359375 2163.007813 L 5151.601563 2163.007813 L 5151.601563 2581.25 L 4733.359375 2581.25 Z M 4733.359375 2163.007813 " transform="matrix(0.1,0,0,-0.1,0,600)"/>
<path style="fill:none;stroke-width:8;stroke-linecap:round;stroke-linejoin:round;stroke:rgb(52.146912%,76.171875%,92.1875%);stroke-opacity:1;stroke-miterlimit:10;" d="M 4733.359375 1744.726563 L 5151.601563 1744.726563 L 5151.601563 2163.007813 L 4733.359375 2163.007813 Z M 4733.359375 1744.726563 " transform="matrix(0.1,0,0,-0.1,0,600)"/>
<path style="fill:none;stroke-width:8;stroke-linecap:round;stroke-linejoin:round;stroke:rgb(52.146912%,76.171875%,92.1875%);stroke-opacity:1;stroke-miterlimit:10;" d="M 5151.601563 3417.773438 L 5569.84375 3417.773438 L 5569.84375 3836.015625 L 5151.601563 3836.015625 Z M 5151.601563 3417.773438 " transform="matrix(0.1,0,0,-0.1,0,600)"/>
<path style="fill:none;stroke-width:8;stroke-linecap:round;stroke-linejoin:round;stroke:rgb(52.146912%,76.171875%,92.1875%);stroke-opacity:1;stroke-miterlimit:10;" d="M 5151.601563 2999.492188 L 5569.84375 2999.492188 L 5569.84375 3417.773438 L 5151.601563 3417.773438 Z M 5151.601563 2999.492188 " transform="matrix(0.1,0,0,-0.1,0,600)"/>
<path style="fill:none;stroke-width:8;stroke-linecap:round;stroke-linejoin:round;stroke:rgb(52.146912%,76.171875%,92.1875%);stroke-opacity:1;stroke-miterlimit:10;" d="M 5151.601563 2581.25 L 5569.84375 2581.25 L 5569.84375 2999.492188 L 5151.601563 2999.492188 Z M 5151.601563 2581.25 " transform="matrix(0.1,0,0,-0.1,0,600)"/>
<path style="fill:none;stroke-width:8;stroke-linecap:round;stroke-linejoin:round;stroke:rgb(52.146912%,76.171875%,92.1875%);stroke-opacity:1;stroke-miterlimit:10;" d="M 5151.601563 2163.007813 L 5569.84375 2163.007813 L 5569.84375 2581.25 L 5151.601563 2581.25 Z M 5151.601563 2163.007813 " transform="matrix(0.1,0,0,-0.1,0,600)"/>
<path style="fill:none;stroke-width:8;stroke-linecap:round;stroke-linejoin:round;stroke:rgb(52.146912%,76.171875%,92.1875%);stroke-opacity:1;stroke-miterlimit:10;" d="M 5151.601563 1744.726563 L 5569.84375 1744.726563 L 5569.84375 2163.007813 L 5151.601563 2163.007813 Z M 5151.601563 1744.726563 " transform="matrix(0.1,0,0,-0.1,0,600)"/>
<path style="fill:none;stroke-width:8;stroke-linecap:round;stroke-linejoin:round;stroke:rgb(52.146912%,76.171875%,92.1875%);stroke-opacity:1;stroke-miterlimit:10;" d="M 5569.84375 3417.773438 L 5988.125 3417.773438 L 5988.125 3836.015625 L 5569.84375 3836.015625 Z M 5569.84375 3417.773438 " transform="matrix(0.1,0,0,-0.1,0,600)"/>
<path style="fill:none;stroke-width:8;stroke-linecap:round;stroke-linejoin:round;stroke:rgb(52.146912%,76.171875%,92.1875%);stroke-opacity:1;stroke-miterlimit:10;" d="M 5569.84375 2999.492188 L 5988.125 2999.492188 L 5988.125 3417.773438 L 5569.84375 3417.773438 Z M 5569.84375 2999.492188 " transform="matrix(0.1,0,0,-0.1,0,600)"/>
<path style="fill:none;stroke-width:8;stroke-linecap:round;stroke-linejoin:round;stroke:rgb(52.146912%,76.171875%,92.1875%);stroke-opacity:1;stroke-miterlimit:10;" d="M 5569.84375 2581.25 L 5988.125 2581.25 L 5988.125 2999.492188 L 5569.84375 2999.492188 Z M 5569.84375 2581.25 " transform="matrix(0.1,0,0,-0.1,0,600)"/>
<path style="fill:none;stroke-width:8;stroke-linecap:round;stroke-linejoin:round;stroke:rgb(52.146912%,76.171875%,92.1875%);stroke-opacity:1;stroke-miterlimit:10;" d="M 5569.84375 2163.007813 L 5988.125 2163.007813 L 5988.125 2581.25 L 5569.84375 2581.25 Z M 5569.84375 2163.007813 " transform="matrix(0.1,0,0,-0.1,0,600)"/>
<path style="fill:none;stroke-width:8;stroke-linecap:round;stroke-linejoin:round;stroke:rgb(52.146912%,76.171875%,92.1875%);stroke-opacity:1;stroke-miterlimit:10;" d="M 5569.84375 1744.726563 L 5988.125 1744.726563 L 5988.125 2163.007813 L 5569.84375 2163.007813 Z M 5569.84375 1744.726563 " transform="matrix(0.1,0,0,-0.1,0,600)"/>
<path style="fill:none;stroke-width:8;stroke-linecap:round;stroke-linejoin:round;stroke:rgb(52.146912%,76.171875%,92.1875%);stroke-opacity:1;stroke-miterlimit:10;" d="M 5988.125 3417.773438 L 6406.367188 3417.773438 L 6406.367188 3836.015625 L 5988.125 3836.015625 Z M 5988.125 3417.773438 " transform="matrix(0.1,0,0,-0.1,0,600)"/>
<path style="fill:none;stroke-width:8;stroke-linecap:round;stroke-linejoin:round;stroke:rgb(52.146912%,76.171875%,92.1875%);stroke-opacity:1;stroke-miterlimit:10;" d="M 5988.125 2999.492188 L 6406.367188 2999.492188 L 6406.367188 3417.773438 L 5988.125 3417.773438 Z M 5988.125 2999.492188 " transform="matrix(0.1,0,0,-0.1,0,600)"/>
<path style="fill:none;stroke-width:8;stroke-linecap:round;stroke-linejoin:round;stroke:rgb(52.146912%,76.171875%,92.1875%);stroke-opacity:1;stroke-miterlimit:10;" d="M 5988.125 2581.25 L 6406.367188 2581.25 L 6406.367188 2999.492188 L 5988.125 2999.492188 Z M 5988.125 2581.25 " transform="matrix(0.1,0,0,-0.1,0,600)"/>
<path style="fill:none;stroke-width:8;stroke-linecap:round;stroke-linejoin:round;stroke:rgb(52.146912%,76.171875%,92.1875%);stroke-opacity:1;stroke-miterlimit:10;" d="M 5988.125 2163.007813 L 6406.367188 2163.007813 L 6406.367188 2581.25 L 5988.125 2581.25 Z M 5988.125 2163.007813 " transform="matrix(0.1,0,0,-0.1,0,600)"/>
<path style="fill:none;stroke-width:8;stroke-linecap:round;stroke-linejoin:round;stroke:rgb(52.146912%,76.171875%,92.1875%);stroke-opacity:1;stroke-miterlimit:10;" d="M 5988.125 1744.726563 L 6406.367188 1744.726563 L 6406.367188 2163.007813 L 5988.125 2163.007813 Z M 5988.125 1744.726563 " transform="matrix(0.1,0,0,-0.1,0,600)"/>
<path style="fill:none;stroke-width:8;stroke-linecap:round;stroke-linejoin:round;stroke:rgb(52.146912%,76.171875%,92.1875%);stroke-opacity:1;stroke-miterlimit:10;" d="M 6406.367188 3417.773438 L 6824.609375 3417.773438 L 6824.609375 3836.015625 L 6406.367188 3836.015625 Z M 6406.367188 3417.773438 " transform="matrix(0.1,0,0,-0.1,0,600)"/>
<path style="fill:none;stroke-width:8;stroke-linecap:round;stroke-linejoin:round;stroke:rgb(52.146912%,76.171875%,92.1875%);stroke-opacity:1;stroke-miterlimit:10;" d="M 6406.367188 2999.492188 L 6824.609375 2999.492188 L 6824.609375 3417.773438 L 6406.367188 3417.773438 Z M 6406.367188 2999.492188 " transform="matrix(0.1,0,0,-0.1,0,600)"/>
<path style="fill:none;stroke-width:8;stroke-linecap:round;stroke-linejoin:round;stroke:rgb(52.146912%,76.171875%,92.1875%);stroke-opacity:1;stroke-miterlimit:10;" d="M 6406.367188 2581.25 L 6824.609375 2581.25 L 6824.609375 2999.492188 L 6406.367188 2999.492188 Z M 6406.367188 2581.25 " transform="matrix(0.1,0,0,-0.1,0,600)"/>
<path style="fill:none;stroke-width:8;stroke-linecap:round;stroke-linejoin:round;stroke:rgb(52.146912%,76.171875%,92.1875%);stroke-opacity:1;stroke-miterlimit:10;" d="M 6406.367188 2163.007813 L 6824.609375 2163.007813 L 6824.609375 2581.25 L 6406.367188 2581.25 Z M 6406.367188 2163.007813 " transform="matrix(0.1,0,0,-0.1,0,600)"/>
<path style="fill:none;stroke-width:8;stroke-linecap:round;stroke-linejoin:round;stroke:rgb(52.146912%,76.171875%,92.1875%);stroke-opacity:1;stroke-miterlimit:10;" d="M 6406.367188 1744.726563 L 6824.609375 1744.726563 L 6824.609375 2163.007813 L 6406.367188 2163.007813 Z M 6406.367188 1744.726563 " transform="matrix(0.1,0,0,-0.1,0,600)"/>
<path style="fill:none;stroke-width:8;stroke-linecap:round;stroke-linejoin:round;stroke:rgb(52.146912%,76.171875%,92.1875%);stroke-opacity:1;stroke-miterlimit:10;" d="M 6824.648438 3417.773438 L 7242.890625 3417.773438 L 7242.890625 3836.015625 L 6824.648438 3836.015625 Z M 6824.648438 3417.773438 " transform="matrix(0.1,0,0,-0.1,0,600)"/>
<path style="fill:none;stroke-width:8;stroke-linecap:round;stroke-linejoin:round;stroke:rgb(52.146912%,76.171875%,92.1875%);stroke-opacity:1;stroke-miterlimit:10;" d="M 6824.648438 2999.492188 L 7242.890625 2999.492188 L 7242.890625 3417.773438 L 6824.648438 3417.773438 Z M 6824.648438 2999.492188 " transform="matrix(0.1,0,0,-0.1,0,600)"/>
<path style="fill:none;stroke-width:8;stroke-linecap:round;stroke-linejoin:round;stroke:rgb(52.146912%,76.171875%,92.1875%);stroke-opacity:1;stroke-miterlimit:10;" d="M 6824.648438 2581.25 L 7242.890625 2581.25 L 7242.890625 2999.492188 L 6824.648438 2999.492188 Z M 6824.648438 2581.25 " transform="matrix(0.1,0,0,-0.1,0,600)"/>
<path style="fill:none;stroke-width:8;stroke-linecap:round;stroke-linejoin:round;stroke:rgb(52.146912%,76.171875%,92.1875%);stroke-opacity:1;stroke-miterlimit:10;" d="M 6824.648438 2163.007813 L 7242.890625 2163.007813 L 7242.890625 2581.25 L 6824.648438 2581.25 Z M 6824.648438 2163.007813 " transform="matrix(0.1,0,0,-0.1,0,600)"/>
<path style="fill:none;stroke-width:8;stroke-linecap:round;stroke-linejoin:round;stroke:rgb(52.146912%,76.171875%,92.1875%);stroke-opacity:1;stroke-miterlimit:10;" d="M 6824.648438 1744.726563 L 7242.890625 1744.726563 L 7242.890625 2163.007813 L 6824.648438 2163.007813 Z M 6824.648438 1744.726563 " transform="matrix(0.1,0,0,-0.1,0,600)"/>
<path style="fill:none;stroke-width:8;stroke-linecap:round;stroke-linejoin:round;stroke:rgb(52.146912%,76.171875%,92.1875%);stroke-opacity:1;stroke-miterlimit:10;" d="M 7242.890625 3417.773438 L 7661.132813 3417.773438 L 7661.132813 3836.015625 L 7242.890625 3836.015625 Z M 7242.890625 3417.773438 " transform="matrix(0.1,0,0,-0.1,0,600)"/>
<path style="fill:none;stroke-width:8;stroke-linecap:round;stroke-linejoin:round;stroke:rgb(52.146912%,76.171875%,92.1875%);stroke-opacity:1;stroke-miterlimit:10;" d="M 7242.890625 2999.492188 L 7661.132813 2999.492188 L 7661.132813 3417.773438 L 7242.890625 3417.773438 Z M 7242.890625 2999.492188 " transform="matrix(0.1,0,0,-0.1,0,600)"/>
<path style="fill:none;stroke-width:8;stroke-linecap:round;stroke-linejoin:round;stroke:rgb(52.146912%,76.171875%,92.1875%);stroke-opacity:1;stroke-miterlimit:10;" d="M 7242.890625 2581.25 L 7661.132813 2581.25 L 7661.132813 2999.492188 L 7242.890625 2999.492188 Z M 7242.890625 2581.25 " transform="matrix(0.1,0,0,-0.1,0,600)"/>
<path style="fill:none;stroke-width:8;stroke-linecap:round;stroke-linejoin:round;stroke:rgb(52.146912%,76.171875%,92.1875%);stroke-opacity:1;stroke-miterlimit:10;" d="M 7242.890625 2163.007813 L 7661.132813 2163.007813 L 7661.132813 2581.25 L 7242.890625 2581.25 Z M 7242.890625 2163.007813 " transform="matrix(0.1,0,0,-0.1,0,600)"/>
<path style="fill:none;stroke-width:8;stroke-linecap:round;stroke-linejoin:round;stroke:rgb(52.146912%,76.171875%,92.1875%);stroke-opacity:1;stroke-miterlimit:10;" d="M 7242.890625 1744.726563 L 7661.132813 1744.726563 L 7661.132813 2163.007813 L 7242.890625 2163.007813 Z M 7242.890625 1744.726563 " transform="matrix(0.1,0,0,-0.1,0,600)"/>
<path style="fill:none;stroke-width:8;stroke-linecap:round;stroke-linejoin:round;stroke:rgb(52.146912%,76.171875%,92.1875%);stroke-opacity:1;stroke-miterlimit:10;" d="M 7661.132813 3417.773438 L 8079.375 3417.773438 L 8079.375 3836.015625 L 7661.132813 3836.015625 Z M 7661.132813 3417.773438 " transform="matrix(0.1,0,0,-0.1,0,600)"/>
<path style="fill:none;stroke-width:8;stroke-linecap:round;stroke-linejoin:round;stroke:rgb(52.146912%,76.171875%,92.1875%);stroke-opacity:1;stroke-miterlimit:10;" d="M 7661.132813 2999.492188 L 8079.375 2999.492188 L 8079.375 3417.773438 L 7661.132813 3417.773438 Z M 7661.132813 2999.492188 " transform="matrix(0.1,0,0,-0.1,0,600)"/>
<path style="fill:none;stroke-width:8;stroke-linecap:round;stroke-linejoin:round;stroke:rgb(52.146912%,76.171875%,92.1875%);stroke-opacity:1;stroke-miterlimit:10;" d="M 7661.132813 2581.25 L 8079.375 2581.25 L 8079.375 2999.492188 L 7661.132813 2999.492188 Z M 7661.132813 2581.25 " transform="matrix(0.1,0,0,-0.1,0,600)"/>
<path style="fill:none;stroke-width:8;stroke-linecap:round;stroke-linejoin:round;stroke:rgb(52.146912%,76.171875%,92.1875%);stroke-opacity:1;stroke-miterlimit:10;" d="M 7661.132813 2163.007813 L 8079.375 2163.007813 L 8079.375 2581.25 L 7661.132813 2581.25 Z M 7661.132813 2163.007813 " transform="matrix(0.1,0,0,-0.1,0,600)"/>
<path style="fill:none;stroke-width:8;stroke-linecap:round;stroke-linejoin:round;stroke:rgb(52.146912%,76.171875%,92.1875%);stroke-opacity:1;stroke-miterlimit:10;" d="M 7661.132813 1744.726563 L 8079.375 1744.726563 L 8079.375 2163.007813 L 7661.132813 2163.007813 Z M 7661.132813 1744.726563 " transform="matrix(0.1,0,0,-0.1,0,600)"/>
<path style="fill:none;stroke-width:8;stroke-linecap:round;stroke-linejoin:round;stroke:rgb(52.146912%,76.171875%,92.1875%);stroke-opacity:1;stroke-miterlimit:10;" d="M 1805.585938 1326.484375 L 2223.828125 1326.484375 L 2223.828125 1744.726563 L 1805.585938 1744.726563 Z M 1805.585938 1326.484375 " transform="matrix(0.1,0,0,-0.1,0,600)"/>
<path style="fill:none;stroke-width:8;stroke-linecap:round;stroke-linejoin:round;stroke:rgb(52.146912%,76.171875%,92.1875%);stroke-opacity:1;stroke-miterlimit:10;" d="M 2223.828125 1326.484375 L 2642.070313 1326.484375 L 2642.070313 1744.726563 L 2223.828125 1744.726563 Z M 2223.828125 1326.484375 " transform="matrix(0.1,0,0,-0.1,0,600)"/>
<path style="fill:none;stroke-width:8;stroke-linecap:round;stroke-linejoin:round;stroke:rgb(52.146912%,76.171875%,92.1875%);stroke-opacity:1;stroke-miterlimit:10;" d="M 969.0625 3417.773438 L 1387.304688 3417.773438 L 1387.304688 3836.015625 L 969.0625 3836.015625 Z M 969.0625 3417.773438 " transform="matrix(0.1,0,0,-0.1,0,600)"/>
<path style="fill:none;stroke-width:8;stroke-linecap:round;stroke-linejoin:round;stroke:rgb(52.146912%,76.171875%,92.1875%);stroke-opacity:1;stroke-miterlimit:10;" d="M 969.0625 2999.492188 L 1387.304688 2999.492188 L 1387.304688 3417.773438 L 969.0625 3417.773438 Z M 969.0625 2999.492188 " transform="matrix(0.1,0,0,-0.1,0,600)"/>
<path style="fill:none;stroke-width:8;stroke-linecap:round;stroke-linejoin:round;stroke:rgb(52.146912%,76.171875%,92.1875%);stroke-opacity:1;stroke-miterlimit:10;" d="M 969.0625 2581.25 L 1387.304688 2581.25 L 1387.304688 2999.492188 L 969.0625 2999.492188 Z M 969.0625 2581.25 " transform="matrix(0.1,0,0,-0.1,0,600)"/>
<path style="fill:none;stroke-width:8;stroke-linecap:round;stroke-linejoin:round;stroke:rgb(52.146912%,76.171875%,92.1875%);stroke-opacity:1;stroke-miterlimit:10;" d="M 969.0625 2163.007813 L 1387.304688 2163.007813 L 1387.304688 2581.25 L 969.0625 2581.25 Z M 969.0625 2163.007813 " transform="matrix(0.1,0,0,-0.1,0,600)"/>
<path style="fill:none;stroke-width:8;stroke-linecap:round;stroke-linejoin:round;stroke:rgb(52.146912%,76.171875%,92.1875%);stroke-opacity:1;stroke-miterlimit:10;" d="M 969.0625 1744.726563 L 1387.304688 1744.726563 L 1387.304688 2163.007813 L 969.0625 2163.007813 Z M 969.0625 1744.726563 " transform="matrix(0.1,0,0,-0.1,0,600)"/>
<path style="fill:none;stroke-width:8;stroke-linecap:round;stroke-linejoin:round;stroke:rgb(52.146912%,76.171875%,92.1875%);stroke-opacity:1;stroke-miterlimit:10;" d="M 1387.304688 3417.773438 L 1805.585938 3417.773438 L 1805.585938 3836.015625 L 1387.304688 3836.015625 Z M 1387.304688 3417.773438 " transform="matrix(0.1,0,0,-0.1,0,600)"/>
<path style="fill:none;stroke-width:8;stroke-linecap:round;stroke-linejoin:round;stroke:rgb(52.146912%,76.171875%,92.1875%);stroke-opacity:1;stroke-miterlimit:10;" d="M 1387.304688 2999.492188 L 1805.585938 2999.492188 L 1805.585938 3417.773438 L 1387.304688 3417.773438 Z M 1387.304688 2999.492188 " transform="matrix(0.1,0,0,-0.1,0,600)"/>
<path style="fill:none;stroke-width:8;stroke-linecap:round;stroke-linejoin:round;stroke:rgb(52.146912%,76.171875%,92.1875%);stroke-opacity:1;stroke-miterlimit:10;" d="M 1387.304688 2581.25 L 1805.585938 2581.25 L 1805.585938 2999.492188 L 1387.304688 2999.492188 Z M 1387.304688 2581.25 " transform="matrix(0.1,0,0,-0.1,0,600)"/>
<path style="fill:none;stroke-width:8;stroke-linecap:round;stroke-linejoin:round;stroke:rgb(52.146912%,76.171875%,92.1875%);stroke-opacity:1;stroke-miterlimit:10;" d="M 1387.304688 2163.007813 L 1805.585938 2163.007813 L 1805.585938 2581.25 L 1387.304688 2581.25 Z M 1387.304688 2163.007813 " transform="matrix(0.1,0,0,-0.1,0,600)"/>
<path style="fill:none;stroke-width:8;stroke-linecap:round;stroke-linejoin:round;stroke:rgb(52.146912%,76.171875%,92.1875%);stroke-opacity:1;stroke-miterlimit:10;" d="M 1387.304688 1744.726563 L 1805.585938 1744.726563 L 1805.585938 2163.007813 L 1387.304688 2163.007813 Z M 1387.304688 1744.726563 " transform="matrix(0.1,0,0,-0.1,0,600)"/>
<path style="fill:none;stroke-width:8;stroke-linecap:round;stroke-linejoin:round;stroke:rgb(52.146912%,76.171875%,92.1875%);stroke-opacity:1;stroke-miterlimit:10;" d="M 969.0625 1326.484375 L 1387.304688 1326.484375 L 1387.304688 1744.726563 L 969.0625 1744.726563 Z M 969.0625 1326.484375 " transform="matrix(0.1,0,0,-0.1,0,600)"/>
<path style="fill:none;stroke-width:8;stroke-linecap:round;stroke-linejoin:round;stroke:rgb(52.146912%,76.171875%,92.1875%);stroke-opacity:1;stroke-miterlimit:10;" d="M 1387.304688 1326.484375 L 1805.585938 1326.484375 L 1805.585938 1744.726563 L 1387.304688 1744.726563 Z M 1387.304688 1326.484375 " transform="matrix(0.1,0,0,-0.1,0,600)"/>
<path style="fill:none;stroke-width:8;stroke-linecap:round;stroke-linejoin:round;stroke:rgb(52.146912%,76.171875%,92.1875%);stroke-opacity:1;stroke-miterlimit:10;" d="M 2642.070313 1326.484375 L 3060.351563 1326.484375 L 3060.351563 1744.726563 L 2642.070313 1744.726563 Z M 2642.070313 1326.484375 " transform="matrix(0.1,0,0,-0.1,0,600)"/>
<path style="fill:none;stroke-width:8;stroke-linecap:round;stroke-linejoin:round;stroke:rgb(52.146912%,76.171875%,92.1875%);stroke-opacity:1;stroke-miterlimit:10;" d="M 3060.351563 1326.484375 L 3478.59375 1326.484375 L 3478.59375 1744.726563 L 3060.351563 1744.726563 Z M 3060.351563 1326.484375 " transform="matrix(0.1,0,0,-0.1,0,600)"/>
<path style="fill:none;stroke-width:8;stroke-linecap:round;stroke-linejoin:round;stroke:rgb(52.146912%,76.171875%,92.1875%);stroke-opacity:1;stroke-miterlimit:10;" d="M 3478.59375 1326.484375 L 3896.835938 1326.484375 L 3896.835938 1744.726563 L 3478.59375 1744.726563 Z M 3478.59375 1326.484375 " transform="matrix(0.1,0,0,-0.1,0,600)"/>
<path style="fill:none;stroke-width:8;stroke-linecap:round;stroke-linejoin:round;stroke:rgb(52.146912%,76.171875%,92.1875%);stroke-opacity:1;stroke-miterlimit:10;" d="M 3896.835938 1326.484375 L 4315.117188 1326.484375 L 4315.117188 1744.726563 L 3896.835938 1744.726563 Z M 3896.835938 1326.484375 " transform="matrix(0.1,0,0,-0.1,0,600)"/>
<path style="fill:none;stroke-width:8;stroke-linecap:round;stroke-linejoin:round;stroke:rgb(52.146912%,76.171875%,92.1875%);stroke-opacity:1;stroke-miterlimit:10;" d="M 4315.078125 1326.484375 L 4733.359375 1326.484375 L 4733.359375 1744.726563 L 4315.078125 1744.726563 Z M 4315.078125 1326.484375 " transform="matrix(0.1,0,0,-0.1,0,600)"/>
<path style="fill:none;stroke-width:8;stroke-linecap:round;stroke-linejoin:round;stroke:rgb(52.146912%,76.171875%,92.1875%);stroke-opacity:1;stroke-miterlimit:10;" d="M 4733.359375 1326.484375 L 5151.601563 1326.484375 L 5151.601563 1744.726563 L 4733.359375 1744.726563 Z M 4733.359375 1326.484375 " transform="matrix(0.1,0,0,-0.1,0,600)"/>
<path style="fill:none;stroke-width:8;stroke-linecap:round;stroke-linejoin:round;stroke:rgb(52.146912%,76.171875%,92.1875%);stroke-opacity:1;stroke-miterlimit:10;" d="M 5151.601563 1326.484375 L 5569.84375 1326.484375 L 5569.84375 1744.726563 L 5151.601563 1744.726563 Z M 5151.601563 1326.484375 " transform="matrix(0.1,0,0,-0.1,0,600)"/>
<path style="fill:none;stroke-width:8;stroke-linecap:round;stroke-linejoin:round;stroke:rgb(52.146912%,76.171875%,92.1875%);stroke-opacity:1;stroke-miterlimit:10;" d="M 5569.84375 1326.484375 L 5988.125 1326.484375 L 5988.125 1744.726563 L 5569.84375 1744.726563 Z M 5569.84375 1326.484375 " transform="matrix(0.1,0,0,-0.1,0,600)"/>
<path style="fill:none;stroke-width:8;stroke-linecap:round;stroke-linejoin:round;stroke:rgb(52.146912%,76.171875%,92.1875%);stroke-opacity:1;stroke-miterlimit:10;" d="M 5988.125 1326.484375 L 6406.367188 1326.484375 L 6406.367188 1744.726563 L 5988.125 1744.726563 Z M 5988.125 1326.484375 " transform="matrix(0.1,0,0,-0.1,0,600)"/>
<path style="fill:none;stroke-width:8;stroke-linecap:round;stroke-linejoin:round;stroke:rgb(52.146912%,76.171875%,92.1875%);stroke-opacity:1;stroke-miterlimit:10;" d="M 6406.367188 1326.484375 L 6824.609375 1326.484375 L 6824.609375 1744.726563 L 6406.367188 1744.726563 Z M 6406.367188 1326.484375 " transform="matrix(0.1,0,0,-0.1,0,600)"/>
<path style="fill:none;stroke-width:8;stroke-linecap:round;stroke-linejoin:round;stroke:rgb(52.146912%,76.171875%,92.1875%);stroke-opacity:1;stroke-miterlimit:10;" d="M 6824.648438 1326.484375 L 7242.890625 1326.484375 L 7242.890625 1744.726563 L 6824.648438 1744.726563 Z M 6824.648438 1326.484375 " transform="matrix(0.1,0,0,-0.1,0,600)"/>
<path style="fill:none;stroke-width:8;stroke-linecap:round;stroke-linejoin:round;stroke:rgb(52.146912%,76.171875%,92.1875%);stroke-opacity:1;stroke-miterlimit:10;" d="M 7242.890625 1326.484375 L 7661.132813 1326.484375 L 7661.132813 1744.726563 L 7242.890625 1744.726563 Z M 7242.890625 1326.484375 " transform="matrix(0.1,0,0,-0.1,0,600)"/>
<path style="fill:none;stroke-width:8;stroke-linecap:round;stroke-linejoin:round;stroke:rgb(52.146912%,76.171875%,92.1875%);stroke-opacity:1;stroke-miterlimit:10;" d="M 7661.132813 1326.484375 L 8079.375 1326.484375 L 8079.375 1744.726563 L 7661.132813 1744.726563 Z M 7661.132813 1326.484375 " transform="matrix(0.1,0,0,-0.1,0,600)"/>
<path style="fill:none;stroke-width:8;stroke-linecap:round;stroke-linejoin:round;stroke:rgb(52.146912%,76.171875%,92.1875%);stroke-opacity:1;stroke-miterlimit:10;" d="M 8079.375 3417.773438 L 8497.65625 3417.773438 L 8497.65625 3836.015625 L 8079.375 3836.015625 Z M 8079.375 3417.773438 " transform="matrix(0.1,0,0,-0.1,0,600)"/>
<path style="fill:none;stroke-width:8;stroke-linecap:round;stroke-linejoin:round;stroke:rgb(52.146912%,76.171875%,92.1875%);stroke-opacity:1;stroke-miterlimit:10;" d="M 8079.375 2999.492188 L 8497.65625 2999.492188 L 8497.65625 3417.773438 L 8079.375 3417.773438 Z M 8079.375 2999.492188 " transform="matrix(0.1,0,0,-0.1,0,600)"/>
<path style="fill:none;stroke-width:8;stroke-linecap:round;stroke-linejoin:round;stroke:rgb(52.146912%,76.171875%,92.1875%);stroke-opacity:1;stroke-miterlimit:10;" d="M 8079.375 2581.25 L 8497.65625 2581.25 L 8497.65625 2999.492188 L 8079.375 2999.492188 Z M 8079.375 2581.25 " transform="matrix(0.1,0,0,-0.1,0,600)"/>
<path style="fill:none;stroke-width:8;stroke-linecap:round;stroke-linejoin:round;stroke:rgb(52.146912%,76.171875%,92.1875%);stroke-opacity:1;stroke-miterlimit:10;" d="M 8079.375 2163.007813 L 8497.65625 2163.007813 L 8497.65625 2581.25 L 8079.375 2581.25 Z M 8079.375 2163.007813 " transform="matrix(0.1,0,0,-0.1,0,600)"/>
<path style="fill:none;stroke-width:8;stroke-linecap:round;stroke-linejoin:round;stroke:rgb(52.146912%,76.171875%,92.1875%);stroke-opacity:1;stroke-miterlimit:10;" d="M 8079.375 1744.726563 L 8497.65625 1744.726563 L 8497.65625 2163.007813 L 8079.375 2163.007813 Z M 8079.375 1744.726563 " transform="matrix(0.1,0,0,-0.1,0,600)"/>
<path style="fill:none;stroke-width:8;stroke-linecap:round;stroke-linejoin:round;stroke:rgb(52.146912%,76.171875%,92.1875%);stroke-opacity:1;stroke-miterlimit:10;" d="M 8497.65625 3417.773438 L 8915.898438 3417.773438 L 8915.898438 3836.015625 L 8497.65625 3836.015625 Z M 8497.65625 3417.773438 " transform="matrix(0.1,0,0,-0.1,0,600)"/>
<path style="fill:none;stroke-width:8;stroke-linecap:round;stroke-linejoin:round;stroke:rgb(52.146912%,76.171875%,92.1875%);stroke-opacity:1;stroke-miterlimit:10;" d="M 8497.65625 2999.492188 L 8915.898438 2999.492188 L 8915.898438 3417.773438 L 8497.65625 3417.773438 Z M 8497.65625 2999.492188 " transform="matrix(0.1,0,0,-0.1,0,600)"/>
<path style="fill:none;stroke-width:8;stroke-linecap:round;stroke-linejoin:round;stroke:rgb(52.146912%,76.171875%,92.1875%);stroke-opacity:1;stroke-miterlimit:10;" d="M 1805.585938 4256.25 L 2223.828125 4256.25 L 2223.828125 4674.53125 L 1805.585938 4674.53125 Z M 1805.585938 4256.25 " transform="matrix(0.1,0,0,-0.1,0,600)"/>
<path style="fill:none;stroke-width:8;stroke-linecap:round;stroke-linejoin:round;stroke:rgb(52.146912%,76.171875%,92.1875%);stroke-opacity:1;stroke-miterlimit:10;" d="M 1805.585938 3838.007813 L 2223.828125 3838.007813 L 2223.828125 4256.25 L 1805.585938 4256.25 Z M 1805.585938 3838.007813 " transform="matrix(0.1,0,0,-0.1,0,600)"/>
<path style="fill:none;stroke-width:8;stroke-linecap:round;stroke-linejoin:round;stroke:rgb(52.146912%,76.171875%,92.1875%);stroke-opacity:1;stroke-miterlimit:10;" d="M 2223.828125 4256.25 L 2642.070313 4256.25 L 2642.070313 4674.53125 L 2223.828125 4674.53125 Z M 2223.828125 4256.25 " transform="matrix(0.1,0,0,-0.1,0,600)"/>
<path style="fill:none;stroke-width:8;stroke-linecap:round;stroke-linejoin:round;stroke:rgb(52.146912%,76.171875%,92.1875%);stroke-opacity:1;stroke-miterlimit:10;" d="M 2223.828125 3838.007813 L 2642.070313 3838.007813 L 2642.070313 4256.25 L 2223.828125 4256.25 Z M 2223.828125 3838.007813 " transform="matrix(0.1,0,0,-0.1,0,600)"/>
<path style="fill:none;stroke-width:8;stroke-linecap:round;stroke-linejoin:round;stroke:rgb(52.146912%,76.171875%,92.1875%);stroke-opacity:1;stroke-miterlimit:10;" d="M 2642.070313 4256.25 L 3060.351563 4256.25 L 3060.351563 4674.53125 L 2642.070313 4674.53125 Z M 2642.070313 4256.25 " transform="matrix(0.1,0,0,-0.1,0,600)"/>
<path style="fill:none;stroke-width:8;stroke-linecap:round;stroke-linejoin:round;stroke:rgb(52.146912%,76.171875%,92.1875%);stroke-opacity:1;stroke-miterlimit:10;" d="M 2642.070313 3838.007813 L 3060.351563 3838.007813 L 3060.351563 4256.25 L 2642.070313 4256.25 Z M 2642.070313 3838.007813 " transform="matrix(0.1,0,0,-0.1,0,600)"/>
<path style="fill:none;stroke-width:8;stroke-linecap:round;stroke-linejoin:round;stroke:rgb(52.146912%,76.171875%,92.1875%);stroke-opacity:1;stroke-miterlimit:10;" d="M 3060.351563 4256.25 L 3478.59375 4256.25 L 3478.59375 4674.53125 L 3060.351563 4674.53125 Z M 3060.351563 4256.25 " transform="matrix(0.1,0,0,-0.1,0,600)"/>
<path style="fill:none;stroke-width:8;stroke-linecap:round;stroke-linejoin:round;stroke:rgb(52.146912%,76.171875%,92.1875%);stroke-opacity:1;stroke-miterlimit:10;" d="M 3060.351563 3838.007813 L 3478.59375 3838.007813 L 3478.59375 4256.25 L 3060.351563 4256.25 Z M 3060.351563 3838.007813 " transform="matrix(0.1,0,0,-0.1,0,600)"/>
<path style="fill:none;stroke-width:8;stroke-linecap:round;stroke-linejoin:round;stroke:rgb(52.146912%,76.171875%,92.1875%);stroke-opacity:1;stroke-miterlimit:10;" d="M 3478.59375 4256.25 L 3896.835938 4256.25 L 3896.835938 4674.53125 L 3478.59375 4674.53125 Z M 3478.59375 4256.25 " transform="matrix(0.1,0,0,-0.1,0,600)"/>
<path style="fill:none;stroke-width:8;stroke-linecap:round;stroke-linejoin:round;stroke:rgb(52.146912%,76.171875%,92.1875%);stroke-opacity:1;stroke-miterlimit:10;" d="M 3478.59375 3838.007813 L 3896.835938 3838.007813 L 3896.835938 4256.25 L 3478.59375 4256.25 Z M 3478.59375 3838.007813 " transform="matrix(0.1,0,0,-0.1,0,600)"/>
<path style="fill:none;stroke-width:8;stroke-linecap:round;stroke-linejoin:round;stroke:rgb(52.146912%,76.171875%,92.1875%);stroke-opacity:1;stroke-miterlimit:10;" d="M 3896.835938 4256.25 L 4315.117188 4256.25 L 4315.117188 4674.53125 L 3896.835938 4674.53125 Z M 3896.835938 4256.25 " transform="matrix(0.1,0,0,-0.1,0,600)"/>
<path style="fill:none;stroke-width:8;stroke-linecap:round;stroke-linejoin:round;stroke:rgb(52.146912%,76.171875%,92.1875%);stroke-opacity:1;stroke-miterlimit:10;" d="M 3896.835938 3838.007813 L 4315.117188 3838.007813 L 4315.117188 4256.25 L 3896.835938 4256.25 Z M 3896.835938 3838.007813 " transform="matrix(0.1,0,0,-0.1,0,600)"/>
<path style="fill:none;stroke-width:8;stroke-linecap:round;stroke-linejoin:round;stroke:rgb(52.146912%,76.171875%,92.1875%);stroke-opacity:1;stroke-miterlimit:10;" d="M 4315.078125 4256.25 L 4733.359375 4256.25 L 4733.359375 4674.53125 L 4315.078125 4674.53125 Z M 4315.078125 4256.25 " transform="matrix(0.1,0,0,-0.1,0,600)"/>
<path style="fill:none;stroke-width:8;stroke-linecap:round;stroke-linejoin:round;stroke:rgb(52.146912%,76.171875%,92.1875%);stroke-opacity:1;stroke-miterlimit:10;" d="M 4315.078125 3838.007813 L 4733.359375 3838.007813 L 4733.359375 4256.25 L 4315.078125 4256.25 Z M 4315.078125 3838.007813 " transform="matrix(0.1,0,0,-0.1,0,600)"/>
<path style="fill:none;stroke-width:8;stroke-linecap:round;stroke-linejoin:round;stroke:rgb(52.146912%,76.171875%,92.1875%);stroke-opacity:1;stroke-miterlimit:10;" d="M 4733.359375 4256.25 L 5151.601563 4256.25 L 5151.601563 4674.53125 L 4733.359375 4674.53125 Z M 4733.359375 4256.25 " transform="matrix(0.1,0,0,-0.1,0,600)"/>
<path style="fill:none;stroke-width:8;stroke-linecap:round;stroke-linejoin:round;stroke:rgb(52.146912%,76.171875%,92.1875%);stroke-opacity:1;stroke-miterlimit:10;" d="M 4733.359375 3838.007813 L 5151.601563 3838.007813 L 5151.601563 4256.25 L 4733.359375 4256.25 Z M 4733.359375 3838.007813 " transform="matrix(0.1,0,0,-0.1,0,600)"/>
<path style="fill:none;stroke-width:8;stroke-linecap:round;stroke-linejoin:round;stroke:rgb(52.146912%,76.171875%,92.1875%);stroke-opacity:1;stroke-miterlimit:10;" d="M 5151.601563 4256.25 L 5569.84375 4256.25 L 5569.84375 4674.53125 L 5151.601563 4674.53125 Z M 5151.601563 4256.25 " transform="matrix(0.1,0,0,-0.1,0,600)"/>
<path style="fill:none;stroke-width:8;stroke-linecap:round;stroke-linejoin:round;stroke:rgb(52.146912%,76.171875%,92.1875%);stroke-opacity:1;stroke-miterlimit:10;" d="M 5151.601563 3838.007813 L 5569.84375 3838.007813 L 5569.84375 4256.25 L 5151.601563 4256.25 Z M 5151.601563 3838.007813 " transform="matrix(0.1,0,0,-0.1,0,600)"/>
<path style="fill:none;stroke-width:8;stroke-linecap:round;stroke-linejoin:round;stroke:rgb(52.146912%,76.171875%,92.1875%);stroke-opacity:1;stroke-miterlimit:10;" d="M 5569.84375 4256.25 L 5988.125 4256.25 L 5988.125 4674.53125 L 5569.84375 4674.53125 Z M 5569.84375 4256.25 " transform="matrix(0.1,0,0,-0.1,0,600)"/>
<path style="fill:none;stroke-width:8;stroke-linecap:round;stroke-linejoin:round;stroke:rgb(52.146912%,76.171875%,92.1875%);stroke-opacity:1;stroke-miterlimit:10;" d="M 5569.84375 3838.007813 L 5988.125 3838.007813 L 5988.125 4256.25 L 5569.84375 4256.25 Z M 5569.84375 3838.007813 " transform="matrix(0.1,0,0,-0.1,0,600)"/>
<path style="fill:none;stroke-width:8;stroke-linecap:round;stroke-linejoin:round;stroke:rgb(52.146912%,76.171875%,92.1875%);stroke-opacity:1;stroke-miterlimit:10;" d="M 5988.125 4256.25 L 6406.367188 4256.25 L 6406.367188 4674.53125 L 5988.125 4674.53125 Z M 5988.125 4256.25 " transform="matrix(0.1,0,0,-0.1,0,600)"/>
<path style="fill:none;stroke-width:8;stroke-linecap:round;stroke-linejoin:round;stroke:rgb(52.146912%,76.171875%,92.1875%);stroke-opacity:1;stroke-miterlimit:10;" d="M 5988.125 3838.007813 L 6406.367188 3838.007813 L 6406.367188 4256.25 L 5988.125 4256.25 Z M 5988.125 3838.007813 " transform="matrix(0.1,0,0,-0.1,0,600)"/>
<path style="fill:none;stroke-width:8;stroke-linecap:round;stroke-linejoin:round;stroke:rgb(52.146912%,76.171875%,92.1875%);stroke-opacity:1;stroke-miterlimit:10;" d="M 6406.367188 4256.25 L 6824.609375 4256.25 L 6824.609375 4674.53125 L 6406.367188 4674.53125 Z M 6406.367188 4256.25 " transform="matrix(0.1,0,0,-0.1,0,600)"/>
<path style="fill:none;stroke-width:8;stroke-linecap:round;stroke-linejoin:round;stroke:rgb(52.146912%,76.171875%,92.1875%);stroke-opacity:1;stroke-miterlimit:10;" d="M 6406.367188 3838.007813 L 6824.609375 3838.007813 L 6824.609375 4256.25 L 6406.367188 4256.25 Z M 6406.367188 3838.007813 " transform="matrix(0.1,0,0,-0.1,0,600)"/>
<path style="fill:none;stroke-width:8;stroke-linecap:round;stroke-linejoin:round;stroke:rgb(52.146912%,76.171875%,92.1875%);stroke-opacity:1;stroke-miterlimit:10;" d="M 6824.648438 4256.25 L 7242.890625 4256.25 L 7242.890625 4674.53125 L 6824.648438 4674.53125 Z M 6824.648438 4256.25 " transform="matrix(0.1,0,0,-0.1,0,600)"/>
<path style="fill:none;stroke-width:8;stroke-linecap:round;stroke-linejoin:round;stroke:rgb(52.146912%,76.171875%,92.1875%);stroke-opacity:1;stroke-miterlimit:10;" d="M 6824.648438 3838.007813 L 7242.890625 3838.007813 L 7242.890625 4256.25 L 6824.648438 4256.25 Z M 6824.648438 3838.007813 " transform="matrix(0.1,0,0,-0.1,0,600)"/>
<path style="fill:none;stroke-width:8;stroke-linecap:round;stroke-linejoin:round;stroke:rgb(52.146912%,76.171875%,92.1875%);stroke-opacity:1;stroke-miterlimit:10;" d="M 7242.890625 4256.25 L 7661.132813 4256.25 L 7661.132813 4674.53125 L 7242.890625 4674.53125 Z M 7242.890625 4256.25 " transform="matrix(0.1,0,0,-0.1,0,600)"/>
<path style="fill:none;stroke-width:8;stroke-linecap:round;stroke-linejoin:round;stroke:rgb(52.146912%,76.171875%,92.1875%);stroke-opacity:1;stroke-miterlimit:10;" d="M 7242.890625 3838.007813 L 7661.132813 3838.007813 L 7661.132813 4256.25 L 7242.890625 4256.25 Z M 7242.890625 3838.007813 " transform="matrix(0.1,0,0,-0.1,0,600)"/>
<path style="fill:none;stroke-width:8;stroke-linecap:round;stroke-linejoin:round;stroke:rgb(52.146912%,76.171875%,92.1875%);stroke-opacity:1;stroke-miterlimit:10;" d="M 7661.132813 4256.25 L 8079.375 4256.25 L 8079.375 4674.53125 L 7661.132813 4674.53125 Z M 7661.132813 4256.25 " transform="matrix(0.1,0,0,-0.1,0,600)"/>
<path style="fill:none;stroke-width:8;stroke-linecap:round;stroke-linejoin:round;stroke:rgb(52.146912%,76.171875%,92.1875%);stroke-opacity:1;stroke-miterlimit:10;" d="M 7661.132813 3838.007813 L 8079.375 3838.007813 L 8079.375 4256.25 L 7661.132813 4256.25 Z M 7661.132813 3838.007813 " transform="matrix(0.1,0,0,-0.1,0,600)"/>
<path style="fill:none;stroke-width:8;stroke-linecap:round;stroke-linejoin:round;stroke:rgb(52.146912%,76.171875%,92.1875%);stroke-opacity:1;stroke-miterlimit:10;" d="M 969.0625 4256.25 L 1387.304688 4256.25 L 1387.304688 4674.53125 L 969.0625 4674.53125 Z M 969.0625 4256.25 " transform="matrix(0.1,0,0,-0.1,0,600)"/>
<path style="fill:none;stroke-width:8;stroke-linecap:round;stroke-linejoin:round;stroke:rgb(52.146912%,76.171875%,92.1875%);stroke-opacity:1;stroke-miterlimit:10;" d="M 969.0625 3838.007813 L 1387.304688 3838.007813 L 1387.304688 4256.25 L 969.0625 4256.25 Z M 969.0625 3838.007813 " transform="matrix(0.1,0,0,-0.1,0,600)"/>
<path style="fill:none;stroke-width:8;stroke-linecap:round;stroke-linejoin:round;stroke:rgb(52.146912%,76.171875%,92.1875%);stroke-opacity:1;stroke-miterlimit:10;" d="M 1387.304688 4256.25 L 1805.585938 4256.25 L 1805.585938 4674.53125 L 1387.304688 4674.53125 Z M 1387.304688 4256.25 " transform="matrix(0.1,0,0,-0.1,0,600)"/>
<path style="fill:none;stroke-width:8;stroke-linecap:round;stroke-linejoin:round;stroke:rgb(52.146912%,76.171875%,92.1875%);stroke-opacity:1;stroke-miterlimit:10;" d="M 1387.304688 3838.007813 L 1805.585938 3838.007813 L 1805.585938 4256.25 L 1387.304688 4256.25 Z M 1387.304688 3838.007813 " transform="matrix(0.1,0,0,-0.1,0,600)"/>
<path style="fill:none;stroke-width:8;stroke-linecap:round;stroke-linejoin:round;stroke:rgb(52.146912%,76.171875%,92.1875%);stroke-opacity:1;stroke-miterlimit:10;" d="M 8079.375 4256.25 L 8497.65625 4256.25 L 8497.65625 4674.53125 L 8079.375 4674.53125 Z M 8079.375 4256.25 " transform="matrix(0.1,0,0,-0.1,0,600)"/>
<path style="fill:none;stroke-width:8;stroke-linecap:round;stroke-linejoin:round;stroke:rgb(52.146912%,76.171875%,92.1875%);stroke-opacity:1;stroke-miterlimit:10;" d="M 8079.375 3838.007813 L 8497.65625 3838.007813 L 8497.65625 4256.25 L 8079.375 4256.25 Z M 8079.375 3838.007813 " transform="matrix(0.1,0,0,-0.1,0,600)"/>
<path style="fill:none;stroke-width:8;stroke-linecap:round;stroke-linejoin:round;stroke:rgb(52.146912%,76.171875%,92.1875%);stroke-opacity:1;stroke-miterlimit:10;" d="M 8497.65625 4256.25 L 8915.898438 4256.25 L 8915.898438 4674.53125 L 8497.65625 4674.53125 Z M 8497.65625 4256.25 " transform="matrix(0.1,0,0,-0.1,0,600)"/>
<path style="fill:none;stroke-width:8;stroke-linecap:round;stroke-linejoin:round;stroke:rgb(52.146912%,76.171875%,92.1875%);stroke-opacity:1;stroke-miterlimit:10;" d="M 8497.65625 3838.007813 L 8915.898438 3838.007813 L 8915.898438 4256.25 L 8497.65625 4256.25 Z M 8497.65625 3838.007813 " transform="matrix(0.1,0,0,-0.1,0,600)"/>
<path style="fill:none;stroke-width:8;stroke-linecap:round;stroke-linejoin:round;stroke:rgb(52.146912%,76.171875%,92.1875%);stroke-opacity:1;stroke-miterlimit:10;" d="M 8497.65625 2581.25 L 8915.898438 2581.25 L 8915.898438 2999.492188 L 8497.65625 2999.492188 Z M 8497.65625 2581.25 " transform="matrix(0.1,0,0,-0.1,0,600)"/>
<path style="fill:none;stroke-width:8;stroke-linecap:round;stroke-linejoin:round;stroke:rgb(52.146912%,76.171875%,92.1875%);stroke-opacity:1;stroke-miterlimit:10;" d="M 8497.65625 2163.007813 L 8915.898438 2163.007813 L 8915.898438 2581.25 L 8497.65625 2581.25 Z M 8497.65625 2163.007813 " transform="matrix(0.1,0,0,-0.1,0,600)"/>
<path style="fill:none;stroke-width:8;stroke-linecap:round;stroke-linejoin:round;stroke:rgb(52.146912%,76.171875%,92.1875%);stroke-opacity:1;stroke-miterlimit:10;" d="M 8497.65625 1744.726563 L 8915.898438 1744.726563 L 8915.898438 2163.007813 L 8497.65625 2163.007813 Z M 8497.65625 1744.726563 " transform="matrix(0.1,0,0,-0.1,0,600)"/>
<path style="fill:none;stroke-width:8;stroke-linecap:round;stroke-linejoin:round;stroke:rgb(52.146912%,76.171875%,92.1875%);stroke-opacity:1;stroke-miterlimit:10;" d="M 8079.375 1326.484375 L 8497.65625 1326.484375 L 8497.65625 1744.726563 L 8079.375 1744.726563 Z M 8079.375 1326.484375 " transform="matrix(0.1,0,0,-0.1,0,600)"/>
<path style="fill:none;stroke-width:8;stroke-linecap:round;stroke-linejoin:round;stroke:rgb(52.146912%,76.171875%,92.1875%);stroke-opacity:1;stroke-miterlimit:10;" d="M 8497.65625 1326.484375 L 8915.898438 1326.484375 L 8915.898438 1744.726563 L 8497.65625 1744.726563 Z M 8497.65625 1326.484375 " transform="matrix(0.1,0,0,-0.1,0,600)"/>
<path style="fill:none;stroke-width:8;stroke-linecap:round;stroke-linejoin:round;stroke:rgb(52.146912%,76.171875%,92.1875%);stroke-opacity:1;stroke-miterlimit:10;" d="M 969.0625 4674.492188 L 1805.585938 3836.015625 " transform="matrix(0.1,0,0,-0.1,0,600)"/>
<path style="fill:none;stroke-width:8;stroke-linecap:round;stroke-linejoin:round;stroke:rgb(52.146912%,76.171875%,92.1875%);stroke-opacity:1;stroke-miterlimit:10;" d="M 969.0625 3836.015625 L 1805.585938 4674.492188 " transform="matrix(0.1,0,0,-0.1,0,600)"/>
<path style="fill:none;stroke-width:8;stroke-linecap:round;stroke-linejoin:round;stroke:rgb(52.146912%,76.171875%,92.1875%);stroke-opacity:1;stroke-miterlimit:10;" d="M 1803.59375 4256.25 C 1803.59375 4025.78125 1616.757813 3838.984375 1386.328125 3838.984375 C 1155.898438 3838.984375 969.0625 4025.78125 969.0625 4256.25 C 969.0625 4486.71875 1155.898438 4673.515625 1386.328125 4673.515625 C 1616.757813 4673.515625 1803.59375 4486.71875 1803.59375 4256.25 Z M 1803.59375 4256.25 " transform="matrix(0.1,0,0,-0.1,0,600)"/>
<g clip-path="url(#clip1)" clip-rule="nonzero">
<use xlink:href="#surface7" transform="matrix(1,0,0,1,96,132)" mask="url(#mask0)"/>
</g>
<path style="fill:none;stroke-width:8;stroke-linecap:round;stroke-linejoin:round;stroke:rgb(52.146912%,76.171875%,92.1875%);stroke-opacity:1;stroke-miterlimit:10;" d="M 8079.375 4674.492188 L 8915.898438 3836.015625 " transform="matrix(0.1,0,0,-0.1,0,600)"/>
<path style="fill:none;stroke-width:8;stroke-linecap:round;stroke-linejoin:round;stroke:rgb(52.146912%,76.171875%,92.1875%);stroke-opacity:1;stroke-miterlimit:10;" d="M 8079.375 3836.015625 L 8915.898438 4674.492188 " transform="matrix(0.1,0,0,-0.1,0,600)"/>
<path style="fill:none;stroke-width:8;stroke-linecap:round;stroke-linejoin:round;stroke:rgb(52.146912%,76.171875%,92.1875%);stroke-opacity:1;stroke-miterlimit:10;" d="M 8913.90625 4256.25 C 8913.90625 4025.78125 8727.109375 3838.984375 8496.640625 3838.984375 C 8266.210938 3838.984375 8079.375 4025.78125 8079.375 4256.25 C 8079.375 4486.71875 8266.210938 4673.515625 8496.640625 4673.515625 C 8727.109375 4673.515625 8913.90625 4486.71875 8913.90625 4256.25 Z M 8913.90625 4256.25 " transform="matrix(0.1,0,0,-0.1,0,600)"/>
<g clip-path="url(#clip4)" clip-rule="nonzero">
<use xlink:href="#surface10" transform="matrix(1,0,0,1,807,132)" mask="url(#mask1)"/>
</g>
<path style="fill:none;stroke-width:8;stroke-linecap:round;stroke-linejoin:round;stroke:rgb(52.146912%,76.171875%,92.1875%);stroke-opacity:1;stroke-miterlimit:10;" d="M 969.0625 2163.984375 L 1805.585938 1325.46875 " transform="matrix(0.1,0,0,-0.1,0,600)"/>
<path style="fill:none;stroke-width:8;stroke-linecap:round;stroke-linejoin:round;stroke:rgb(52.146912%,76.171875%,92.1875%);stroke-opacity:1;stroke-miterlimit:10;" d="M 969.0625 1325.507813 L 1805.585938 2163.984375 " transform="matrix(0.1,0,0,-0.1,0,600)"/>
<path style="fill:none;stroke-width:8;stroke-linecap:round;stroke-linejoin:round;stroke:rgb(52.146912%,76.171875%,92.1875%);stroke-opacity:1;stroke-miterlimit:10;" d="M 1803.59375 1745.742188 C 1803.59375 1515.273438 1616.757813 1328.476563 1386.328125 1328.476563 C 1155.898438 1328.476563 969.0625 1515.273438 969.0625 1745.742188 C 969.0625 1976.171875 1155.898438 2163.007813 1386.328125 2163.007813 C 1616.757813 2163.007813 1803.59375 1976.171875 1803.59375 1745.742188 Z M 1803.59375 1745.742188 " transform="matrix(0.1,0,0,-0.1,0,600)"/>
<g clip-path="url(#clip7)" clip-rule="nonzero">
<use xlink:href="#surface13" transform="matrix(1,0,0,1,96,383)" mask="url(#mask2)"/>
</g>
<path style="fill:none;stroke-width:8;stroke-linecap:round;stroke-linejoin:round;stroke:rgb(52.146912%,76.171875%,92.1875%);stroke-opacity:1;stroke-miterlimit:10;" d="M 8079.375 2163.984375 L 8915.898438 1325.46875 " transform="matrix(0.1,0,0,-0.1,0,600)"/>
<path style="fill:none;stroke-width:8;stroke-linecap:round;stroke-linejoin:round;stroke:rgb(52.146912%,76.171875%,92.1875%);stroke-opacity:1;stroke-miterlimit:10;" d="M 8079.375 1325.507813 L 8915.898438 2163.984375 " transform="matrix(0.1,0,0,-0.1,0,600)"/>
<path style="fill:none;stroke-width:8;stroke-linecap:round;stroke-linejoin:round;stroke:rgb(52.146912%,76.171875%,92.1875%);stroke-opacity:1;stroke-miterlimit:10;" d="M 8913.90625 1745.742188 C 8913.90625 1515.273438 8727.109375 1328.476563 8496.640625 1328.476563 C 8266.210938 1328.476563 8079.375 1515.273438 8079.375 1745.742188 C 8079.375 1976.171875 8266.210938 2163.007813 8496.640625 2163.007813 C 8727.109375 2163.007813 8913.90625 1976.171875 8913.90625 1745.742188 Z M 8913.90625 1745.742188 " transform="matrix(0.1,0,0,-0.1,0,600)"/>
<g clip-path="url(#clip10)" clip-rule="nonzero">
<use xlink:href="#surface12" transform="matrix(1,0,0,1,807,383)" mask="url(#mask3)"/>
</g>
<path style=" stroke:none;fill-rule:nonzero;fill:rgb(87.5%,94.53125%,98.826599%);fill-opacity:1;" d="M 682.464844 138.335938 C 682.464844 141.183594 684.390625 143.554688 687.28125 144.027344 C 689.210938 144.503906 714.273438 151.613281 714.273438 174.375 C 714.273438 196.660156 687.765625 204.722656 686.800781 205.195313 C 683.910156 206.144531 682.464844 208.515625 682.464844 211.359375 C 682.945313 214.203125 685.355469 216.101563 688.246094 216.101563 L 751.871094 216.101563 C 755.246094 216.101563 757.65625 213.730469 757.65625 210.410156 C 757.65625 207.089844 755.246094 204.722656 751.871094 204.722656 L 710.902344 204.722656 C 719.09375 198.082031 725.84375 188.125 725.84375 174.375 C 725.84375 160.621094 719.09375 150.664063 711.382813 144.027344 L 751.871094 144.027344 C 755.246094 144.027344 757.65625 141.65625 757.65625 138.335938 C 757.65625 135.019531 755.246094 132.648438 751.871094 132.648438 L 688.246094 132.648438 C 684.871094 132.648438 682.464844 135.019531 682.464844 138.335938 "/>
<path style="fill:none;stroke-width:8;stroke-linecap:round;stroke-linejoin:round;stroke:rgb(52.146912%,76.171875%,92.1875%);stroke-opacity:1;stroke-miterlimit:10;" d="M 6824.648438 4616.640625 C 6824.648438 4588.164063 6843.90625 4564.453125 6872.8125 4559.726563 C 6892.109375 4554.960938 7142.734375 4483.867188 7142.734375 4256.25 C 7142.734375 4033.398438 6877.65625 3952.773438 6868.007813 3948.046875 C 6839.101563 3938.554688 6824.648438 3914.84375 6824.648438 3886.40625 C 6829.453125 3857.96875 6853.554688 3838.984375 6882.460938 3838.984375 L 7518.710938 3838.984375 C 7552.460938 3838.984375 7576.5625 3862.695313 7576.5625 3895.898438 C 7576.5625 3929.101563 7552.460938 3952.773438 7518.710938 3952.773438 L 7109.023438 3952.773438 C 7190.9375 4019.179688 7258.4375 4118.75 7258.4375 4256.25 C 7258.4375 4393.789063 7190.9375 4493.359375 7113.828125 4559.726563 L 7518.710938 4559.726563 C 7552.460938 4559.726563 7576.5625 4583.4375 7576.5625 4616.640625 C 7576.5625 4649.804688 7552.460938 4673.515625 7518.710938 4673.515625 L 6882.460938 4673.515625 C 6848.710938 4673.515625 6824.648438 4649.804688 6824.648438 4616.640625 Z M 6824.648438 4616.640625 " transform="matrix(0.1,0,0,-0.1,0,600)"/>
<path style=" stroke:none;fill-rule:nonzero;fill:rgb(87.5%,94.53125%,98.826599%);fill-opacity:1;" d="M 174.667969 308.386719 C 171.824219 308.386719 169.453125 310.3125 168.980469 313.203125 C 168.503906 315.132813 161.394531 340.195313 138.632813 340.195313 C 116.347656 340.195313 108.285156 313.6875 107.8125 312.722656 C 106.863281 309.832031 104.492188 308.386719 101.648438 308.386719 C 98.800781 308.867188 96.90625 311.277344 96.90625 314.167969 L 96.90625 377.792969 C 96.90625 381.167969 99.277344 383.578125 102.597656 383.578125 C 105.914063 383.578125 108.285156 381.167969 108.285156 377.792969 L 108.285156 336.824219 C 114.925781 345.015625 124.882813 351.765625 138.632813 351.765625 C 152.382813 351.765625 162.339844 345.015625 168.980469 337.304688 L 168.980469 377.792969 C 168.980469 381.167969 171.347656 383.578125 174.667969 383.578125 C 177.988281 383.578125 180.359375 381.167969 180.359375 377.792969 L 180.359375 314.167969 C 180.359375 310.796875 177.988281 308.386719 174.667969 308.386719 "/>
<path style="fill:none;stroke-width:8;stroke-linecap:round;stroke-linejoin:round;stroke:rgb(52.146912%,76.171875%,92.1875%);stroke-opacity:1;stroke-miterlimit:10;" d="M 1746.679688 2916.132813 C 1718.242188 2916.132813 1694.53125 2896.875 1689.804688 2867.96875 C 1685.039063 2848.671875 1613.945313 2598.046875 1386.328125 2598.046875 C 1163.476563 2598.046875 1082.851563 2863.125 1078.125 2872.773438 C 1068.632813 2901.679688 1044.921875 2916.132813 1016.484375 2916.132813 C 988.007813 2911.328125 969.0625 2887.226563 969.0625 2858.320313 L 969.0625 2222.070313 C 969.0625 2188.320313 992.773438 2164.21875 1025.976563 2164.21875 C 1059.140625 2164.21875 1082.851563 2188.320313 1082.851563 2222.070313 L 1082.851563 2631.757813 C 1149.257813 2549.84375 1248.828125 2482.34375 1386.328125 2482.34375 C 1523.828125 2482.34375 1623.398438 2549.84375 1689.804688 2626.953125 L 1689.804688 2222.070313 C 1689.804688 2188.320313 1713.476563 2164.21875 1746.679688 2164.21875 C 1779.882813 2164.21875 1803.59375 2188.320313 1803.59375 2222.070313 L 1803.59375 2858.320313 C 1803.59375 2892.03125 1779.882813 2916.132813 1746.679688 2916.132813 Z M 1746.679688 2916.132813 " transform="matrix(0.1,0,0,-0.1,0,600)"/>
<path style=" stroke:none;fill-rule:nonzero;fill:rgb(39.208984%,45.092773%,100%);fill-opacity:1;" d="M 285.121094 383.699219 L 180.558594 383.699219 L 180.558594 216.398438 L 285.121094 216.398438 Z M 285.121094 383.699219 "/>
<path style=" stroke:none;fill-rule:nonzero;fill:rgb(100%,100%,100%);fill-opacity:1;" d="M 232.324219 291.855469 C 207.828125 291.855469 194.429688 241.472656 192.117188 231.660156 C 191.195313 228.539063 193.503906 225.867188 196.277344 224.976563 C 199.511719 224.082031 202.285156 226.3125 203.210938 228.988281 C 208.292969 249.941406 221.234375 281.152344 232.324219 281.152344 C 241.570313 281.152344 255.433594 253.953125 262.828125 228.988281 C 263.753906 226.3125 266.527344 224.527344 269.761719 225.421875 C 272.535156 226.3125 274.382813 229.433594 273.457031 232.109375 C 270.222656 241.917969 254.511719 291.855469 232.324219 291.855469 "/>
<path style=" stroke:none;fill-rule:nonzero;fill:rgb(11.767578%,11.767578%,10.984802%);fill-opacity:1;" d="M 605.125 285.355469 C 605.125 288.730469 607.535156 291.140625 610.910156 291.140625 C 614.285156 291.140625 616.695313 288.730469 616.695313 285.355469 L 616.695313 228.480469 L 640.203125 228.480469 C 643.578125 228.480469 645.988281 226.070313 645.988281 222.695313 C 645.988281 219.324219 643.578125 216.914063 640.203125 216.914063 L 581.824219 216.914063 C 578.449219 216.914063 576.039063 219.324219 576.039063 222.695313 C 576.039063 226.070313 578.449219 228.480469 581.824219 228.480469 L 605.125 228.480469 "/>
<path style=" stroke:none;fill-rule:nonzero;fill:rgb(11.767578%,11.767578%,10.984802%);fill-opacity:1;" d="M 417.257813 280.429688 C 427.859375 289.105469 443.765625 291.515625 455.335938 291.515625 C 464.972656 291.515625 472.203125 290.070313 472.6875 290.070313 C 476.058594 289.585938 477.988281 286.214844 477.507813 283.320313 C 477.023438 279.945313 473.648438 278.019531 470.757813 278.5 C 462.082031 279.945313 437.019531 281.875 424.484375 271.753906 C 420.628906 268.378906 418.21875 264.039063 417.257813 258.257813 L 455.335938 258.257813 C 458.707031 258.257813 461.117188 255.847656 461.117188 252.472656 C 461.117188 249.097656 458.707031 246.6875 455.335938 246.6875 L 417.738281 246.6875 C 418.703125 242.351563 421.113281 238.976563 424.003906 236.566406 C 438.945313 224.035156 470.277344 228.855469 470.757813 229.335938 C 474.132813 229.820313 477.023438 227.890625 477.507813 224.515625 C 477.988281 221.144531 476.058594 218.25 472.6875 217.769531 C 471.238281 217.285156 435.570313 211.984375 416.292969 227.890625 C 408.578125 234.15625 404.722656 242.832031 404.722656 253.917969 C 405.207031 264.523438 409.0625 273.679688 417.257813 280.429688 "/>
<path style=" stroke:none;fill-rule:nonzero;fill:rgb(11.767578%,11.767578%,10.984802%);fill-opacity:1;" d="M 667.699219 280.671875 C 678.304688 289.347656 694.210938 291.757813 705.777344 291.757813 C 715.417969 291.757813 722.648438 290.3125 723.128906 290.3125 C 726.503906 289.828125 728.429688 286.9375 727.949219 283.5625 C 727.46875 280.1875 724.09375 278.261719 721.199219 278.742188 C 720.71875 278.742188 689.871094 284.046875 674.929688 271.511719 C 671.074219 268.136719 668.664063 263.800781 667.699219 258.015625 L 705.777344 258.015625 C 709.152344 258.015625 711.5625 255.605469 711.5625 252.230469 C 711.5625 248.859375 709.152344 246.449219 705.777344 246.449219 L 668.179688 246.449219 C 669.144531 242.109375 671.554688 238.734375 674.445313 236.328125 C 689.390625 223.796875 720.71875 228.613281 721.199219 229.097656 C 724.574219 229.578125 727.46875 227.648438 727.949219 224.277344 C 728.429688 220.902344 726.503906 218.011719 723.128906 217.527344 C 721.683594 217.046875 686.015625 211.746094 666.734375 227.648438 C 659.023438 233.914063 655.167969 242.59375 655.167969 253.679688 C 655.648438 264.765625 659.988281 273.921875 667.699219 280.671875 "/>
<path style=" stroke:none;fill-rule:nonzero;fill:rgb(11.767578%,11.767578%,10.984802%);fill-opacity:1;" d="M 385.035156 216.429688 C 382.140625 216.429688 379.730469 218.359375 379.25 221.25 C 378.769531 223.179688 371.539063 248.242188 348.402344 248.242188 C 325.746094 248.242188 317.554688 221.734375 317.070313 220.769531 C 316.105469 217.878906 313.699219 216.429688 310.804688 216.429688 C 307.914063 216.914063 305.984375 219.324219 305.984375 222.214844 L 305.984375 285.839844 C 305.984375 289.214844 308.394531 291.621094 311.769531 291.621094 C 315.144531 291.621094 317.554688 289.214844 317.554688 285.839844 L 317.554688 244.867188 C 324.300781 253.0625 334.421875 259.8125 348.402344 259.8125 C 362.378906 259.8125 372.503906 253.0625 379.25 245.351563 L 379.25 285.839844 C 379.25 289.214844 381.660156 291.621094 385.035156 291.621094 C 388.40625 291.621094 390.816406 289.214844 390.816406 285.839844 L 390.816406 222.214844 C 390.816406 218.839844 388.40625 216.429688 385.035156 216.429688 "/>
<path style=" stroke:none;fill-rule:nonzero;fill:rgb(11.767578%,11.767578%,10.984802%);fill-opacity:1;" d="M 559.632813 281.730469 C 564.453125 277.878906 566.863281 272.574219 566.863281 266.308594 C 566.863281 251.367188 548.066406 249.4375 529.75 247.511719 C 518.664063 246.546875 502.273438 244.617188 502.273438 239.796875 C 502.273438 237.386719 503.238281 235.460938 505.167969 234.015625 C 513.84375 226.300781 540.351563 226.785156 554.8125 229.195313 C 558.1875 229.675781 561.078125 227.265625 561.5625 224.375 C 562.042969 221 559.632813 218.109375 556.742188 217.628906 C 552.402344 217.144531 513.359375 211.84375 497.9375 225.339844 C 493.597656 229.195313 491.1875 234.015625 491.1875 240.28125 C 491.1875 255.703125 511.433594 257.632813 529.265625 259.5625 C 539.390625 260.523438 555.777344 261.96875 555.777344 266.789063 C 555.777344 269.683594 554.8125 271.609375 552.886719 273.539063 C 542.28125 282.695313 509.988281 280.769531 498.417969 278.839844 C 495.046875 278.359375 492.152344 280.769531 491.671875 283.660156 C 491.1875 287.035156 493.597656 289.925781 496.492188 290.40625 C 498.417969 290.890625 508.539063 291.855469 520.109375 291.855469 C 533.605469 291.371094 550.476563 289.445313 559.632813 281.730469 "/>
<path style=" stroke:none;fill-rule:nonzero;fill:rgb(11.767578%,11.767578%,10.984802%);fill-opacity:1;" d="M 385.082031 308.125 C 382.1875 308.125 379.78125 310.050781 379.296875 312.945313 C 378.816406 314.871094 371.585938 339.9375 348.449219 339.9375 C 325.796875 339.9375 317.601563 313.425781 317.121094 312.460938 C 316.15625 309.570313 313.746094 308.125 310.855469 308.125 C 307.960938 308.605469 306.035156 311.015625 306.035156 313.90625 L 306.035156 377.53125 C 306.035156 380.90625 308.441406 383.316406 311.816406 383.316406 C 315.191406 383.316406 317.601563 380.90625 317.601563 377.53125 L 317.601563 336.5625 C 324.351563 344.757813 334.472656 351.503906 348.449219 351.503906 C 362.425781 351.503906 372.550781 344.757813 379.296875 337.042969 L 379.296875 377.53125 C 379.296875 380.90625 381.707031 383.316406 385.082031 383.316406 C 388.453125 383.316406 390.867188 380.90625 390.867188 377.53125 L 390.867188 313.90625 C 390.867188 310.535156 388.453125 308.125 385.082031 308.125 "/>
<path style=" stroke:none;fill-rule:nonzero;fill:rgb(11.767578%,11.767578%,10.984802%);fill-opacity:1;" d="M 553.371094 330.199219 C 550.480469 341.765625 522.042969 344.175781 504.210938 343.695313 L 504.210938 319.59375 C 522.523438 318.632813 547.105469 320.558594 552.890625 327.304688 C 553.371094 328.269531 553.855469 328.753906 553.371094 330.199219 M 564.941406 333.089844 C 566.386719 328.269531 564.941406 323.449219 562.046875 319.59375 C 549.996094 305.136719 507.101563 307.546875 498.425781 308.507813 C 495.53125 308.507813 492.640625 311.398438 492.640625 314.292969 L 492.640625 377.433594 C 492.640625 380.808594 495.050781 383.21875 498.425781 383.21875 C 501.796875 383.21875 504.210938 380.808594 504.210938 377.433594 L 504.210938 355.746094 C 512.402344 355.746094 526.863281 355.746094 539.878906 352.371094 L 553.855469 380.328125 C 554.816406 382.253906 556.746094 383.699219 559.15625 383.699219 C 560.121094 383.699219 561.085938 383.699219 561.566406 383.21875 C 564.460938 381.773438 565.421875 378.398438 563.976563 375.507813 L 550.480469 348.996094 C 557.710938 345.140625 563.011719 340.320313 564.941406 333.089844 "/>
<path style=" stroke:none;fill-rule:nonzero;fill:rgb(11.767578%,11.767578%,10.984802%);fill-opacity:1;" d="M 640.886719 370.9375 L 595.097656 347.320313 L 639.921875 318.882813 C 642.816406 316.953125 643.296875 313.578125 641.851563 310.6875 C 639.921875 307.796875 636.550781 307.3125 633.65625 308.757813 L 589.3125 337.199219 L 589.3125 314.0625 C 589.3125 310.6875 586.902344 308.277344 583.53125 308.277344 C 580.15625 308.277344 577.746094 310.6875 577.746094 314.0625 L 577.746094 377.6875 C 577.746094 381.058594 580.15625 383.46875 583.53125 383.46875 C 586.902344 383.46875 589.3125 381.058594 589.3125 377.6875 L 589.3125 357.441406 L 636.066406 381.058594 C 637.03125 381.539063 637.996094 381.539063 638.960938 381.539063 C 640.886719 381.539063 643.296875 380.578125 644.261719 378.167969 C 644.742188 376.242188 643.777344 372.382813 640.886719 370.9375 "/>
<path style=" stroke:none;fill-rule:nonzero;fill:rgb(11.767578%,11.767578%,10.984802%);fill-opacity:1;" d="M 767.074219 377.289063 C 767.074219 380.664063 769.484375 383.074219 772.859375 383.074219 C 776.234375 383.074219 778.644531 380.664063 778.644531 377.289063 L 778.644531 319.933594 L 802.15625 319.933594 C 805.527344 319.933594 807.9375 317.523438 807.9375 314.148438 C 807.9375 310.773438 805.527344 308.363281 802.15625 308.363281 L 743.773438 308.363281 C 740.402344 308.363281 737.992188 310.773438 737.992188 314.148438 C 737.992188 317.523438 740.402344 319.933594 743.773438 319.933594 L 767.074219 319.933594 "/>
<path style=" stroke:none;fill-rule:nonzero;fill:rgb(11.767578%,11.767578%,10.984802%);fill-opacity:1;" d="M 674.496094 327.777344 C 689.4375 315.246094 720.765625 320.066406 721.246094 320.546875 C 724.621094 321.03125 727.515625 319.101563 727.996094 315.726563 C 728.480469 312.355469 726.550781 309.460938 723.175781 308.980469 C 721.730469 308.496094 686.0625 303.195313 666.78125 319.101563 C 659.070313 325.367188 655.214844 334.042969 655.214844 345.128906 C 655.214844 356.699219 659.070313 365.855469 667.265625 372.605469 C 677.867188 381.28125 693.773438 383.691406 705.34375 383.691406 C 714.984375 383.691406 722.214844 382.242188 722.695313 382.242188 C 726.070313 381.761719 727.996094 378.386719 727.515625 375.496094 C 727.03125 372.121094 724.140625 370.195313 720.765625 370.675781 C 712.089844 372.121094 687.027344 374.050781 674.496094 363.925781 C 670.640625 360.554688 668.230469 356.214844 667.265625 350.429688 L 705.34375 350.429688 C 708.71875 350.429688 711.128906 348.023438 711.128906 344.648438 C 711.128906 341.273438 708.71875 338.863281 705.34375 338.863281 L 667.746094 338.863281 C 669.191406 333.5625 671.121094 330.1875 674.496094 327.777344 "/>
<path style=" stroke:none;fill-rule:nonzero;fill:rgb(11.767578%,11.767578%,10.984802%);fill-opacity:1;" d="M 441.199219 342.566406 L 418.410156 342.566406 C 420.339844 336.785156 423.230469 331 427.089844 327.144531 C 429.007813 325.222656 431.113281 323.683594 433.410156 322.5625 C 438.347656 320.152344 444.050781 320.152344 448.984375 322.5625 C 451.28125 323.683594 453.390625 325.222656 455.3125 327.144531 C 459.167969 331 462.058594 336.785156 463.988281 342.566406 Z M 463.988281 318.464844 C 457.660156 312.140625 450.066406 308.78125 441.199219 308.382813 C 432.332031 308.78125 424.738281 312.140625 418.410156 318.464844 C 400.578125 337.265625 402.023438 375.34375 402.023438 377.269531 C 402.023438 380.644531 404.914063 383.054688 408.289063 383.054688 C 411.664063 383.054688 414.074219 380.164063 414.074219 376.789063 C 414.074219 371.96875 414.074219 363.292969 415.519531 354.132813 L 466.878906 354.132813 C 468.324219 363.292969 468.324219 371.96875 468.324219 376.789063 C 468.324219 380.164063 470.734375 383.054688 474.109375 383.054688 C 477.484375 383.054688 480.375 380.644531 480.375 377.269531 C 480.375 375.34375 481.820313 337.265625 463.988281 318.464844 "/>
</g>
</svg>
